<svg xmlns="http://www.w3.org/2000/svg" viewBox="0 0 42.13 45.53"><defs><style>.cls-1{fill:#ff9575}.cls-2{fill:#6d4c41}.cls-3{fill:none;stroke:#ff9575;stroke-miterlimit:10;stroke-width:2px}</style></defs><title>info-time</title><g id="Слой_2" data-name="Слой 2"><g id="RECIPE_PAGE_1160" data-name="RECIPE PAGE 1160"><g id="New_Symbol_6" data-name="New Symbol 6"><path class="cls-1" d="M21.07 5.4A19.07 19.07 0 1 1 2 24.47 19.07 19.07 0 0 1 21.07 5.4m0-2a21.07 21.07 0 1 0 21.06 21.07A21.09 21.09 0 0 0 21.07 3.4z"/><path class="cls-2" d="M26.07 11.72L22.36 17c-.93 1.32-.39 3.32 1.2 4.44s3.66 1 4.59-.36l3.71-5.26-.74-.52L28 19.69s-.72 1.19-1.63.55c0 0-.94-.43-.16-1.63l3.19-4.51-.89-.63-3 4.31c-.92 1.36-1.7.55-1.7.55a1.08 1.08 0 0 1-.16-1.54l3.2-4.55z"/><path class="cls-2" d="M22.63 20.6L12.41 34.83a.77.77 0 0 0 .19 1.08l.22.16a.77.77 0 0 0 1.08-.19l10.21-14.23a.77.77 0 0 0-.19-1.08l-.22-.16a.77.77 0 0 0-1.07.19z"/><path class="cls-3" d="M21.07 1v3.67"/><circle class="cls-2" cx="7.87" cy="24.47" r="1.47"/><circle class="cls-2" cx="12.27" cy="15.67" r="1.47"/><circle class="cls-2" cx="21.07" cy="11.27" r="1.47"/><circle class="cls-2" cx="34.27" cy="24.47" r="1.47"/><circle class="cls-2" cx="21.07" cy="37.67" r="1.47"/><circle class="cls-2" cx="29.87" cy="33.27" r="1.47"/><path class="cls-3" d="M17.2 1H25"/></g></g></g></svg>