<svg xmlns="http://www.w3.org/2000/svg" viewBox="0 0 44.34 35.29"><defs><style>.cls-1,.cls-2,.cls-3{fill:none;stroke-width:2px}.cls-1,.cls-2{stroke:#ff9575;stroke-miterlimit:10}.cls-2{stroke:#6d4c41}.cls-3{stroke:#6d4c41;stroke-linecap:round;stroke-linejoin:round}</style></defs><title>info-location</title><g id="Слой_2" data-name="Слой 2"><g id="RECIPE_PAGE_1160" data-name="RECIPE PAGE 1160"><g id="New_Symbol_5" data-name="New Symbol 5"><path class="cls-1" d="M23 15.13a11 11 0 0 0-22 0c0 12.33 11 19 11 19s11-6.34 11-19z"/><circle class="cls-1" cx="12" cy="14.99" r="5"/><path class="cls-2" d="M17 34h14.19A6.81 6.81 0 0 0 38 27.19V16H26M38 16h4.39a1 1 0 0 1 .61 1.67L39 21"/><path class="cls-3" d="M35 11c0-3.06-3-1.81-3-5s3-2.22 3-5M29 11c0-3.06-3-1.81-3-5s3-2.22 3-5"/></g></g></g></svg>